<svg width="39.000000" height="39.000000" viewBox="0 0 39 39" fill="none" xmlns="http://www.w3.org/2000/svg" xmlns:xlink="http://www.w3.org/1999/xlink">
	<desc>
			Created with Pixso.
	</desc>
	<defs/>
	<rect id="Rectangle 18" width="3.000000" height="3.000000" fill="#000000" fill-opacity="1.000000"/>
	<rect id="Rectangle 17" y="3.000000" width="3.000000" height="3.000000" fill="#000000" fill-opacity="1.000000"/>
	<rect id="Rectangle 19" y="6.000000" width="3.000000" height="3.000000" fill="#000000" fill-opacity="1.000000"/>
	<rect id="Rectangle 20" y="9.000000" width="3.000000" height="3.000000" fill="#000000" fill-opacity="1.000000"/>
	<rect id="Rectangle 21" y="12.000000" width="3.000000" height="3.000000" fill="#000000" fill-opacity="1.000000"/>
	<rect id="Rectangle 22" y="15.000000" width="3.000000" height="3.000000" fill="#000000" fill-opacity="1.000000"/>
	<rect id="Rectangle 23" y="18.000000" width="3.000000" height="3.000000" fill="#000000" fill-opacity="1.000000"/>
	<rect id="Rectangle 24" y="21.000000" width="3.000000" height="3.000000" fill="#000000" fill-opacity="1.000000"/>
	<rect id="Rectangle 25" y="24.000000" width="3.000000" height="3.000000" fill="#000000" fill-opacity="1.000000"/>
	<rect id="Rectangle 26" y="27.000000" width="3.000000" height="3.000000" fill="#000000" fill-opacity="1.000000"/>
	<rect id="Rectangle 27" y="30.000000" width="3.000000" height="3.000000" fill="#000000" fill-opacity="1.000000"/>
	<rect id="Rectangle 28" y="33.000000" width="3.000000" height="3.000000" fill="#000000" fill-opacity="1.000000"/>
	<rect id="Rectangle 29" y="36.000000" width="3.000000" height="3.000000" fill="#000000" fill-opacity="1.000000"/>
	<rect id="Rectangle 32" x="33.000000" width="3.000000" height="3.000000" transform="rotate(90 33.000000 0.000000)" fill="#000000" fill-opacity="1.000000"/>
	<rect id="Rectangle 33" x="30.000000" width="3.000000" height="3.000000" transform="rotate(90 30.000000 0.000000)" fill="#000000" fill-opacity="1.000000"/>
	<rect id="Rectangle 34" x="27.000000" width="3.000000" height="3.000000" transform="rotate(90 27.000000 0.000000)" fill="#000000" fill-opacity="1.000000"/>
	<rect id="Rectangle 35" x="24.000000" width="3.000000" height="3.000000" transform="rotate(90 24.000000 0.000000)" fill="#000000" fill-opacity="1.000000"/>
	<rect id="Rectangle 36" x="21.000000" width="3.000000" height="3.000000" transform="rotate(90 21.000000 0.000000)" fill="#000000" fill-opacity="1.000000"/>
	<rect id="Rectangle 37" x="18.000000" width="3.000000" height="3.000000" transform="rotate(90 18.000000 0.000000)" fill="#000000" fill-opacity="1.000000"/>
	<rect id="Rectangle 38" x="15.000000" width="3.000000" height="3.000000" transform="rotate(90 15.000000 0.000000)" fill="#000000" fill-opacity="1.000000"/>
	<rect id="Rectangle 39" x="12.000000" width="3.000000" height="3.000000" transform="rotate(90 12.000000 0.000000)" fill="#000000" fill-opacity="1.000000"/>
	<rect id="Rectangle 40" x="9.000000" width="3.000000" height="3.000000" transform="rotate(90 9.000000 0.000000)" fill="#000000" fill-opacity="1.000000"/>
	<rect id="Rectangle 41" x="6.000000" width="3.000000" height="3.000000" transform="rotate(90 6.000000 0.000000)" fill="#000000" fill-opacity="1.000000"/>
	<rect id="Rectangle 65" x="36.000000" y="3.000000" width="3.000000" height="3.000000" transform="rotate(90 36.000000 3.000000)" fill="#000000" fill-opacity="1.000000"/>
	<rect id="Rectangle 85" x="9.000000" y="6.000000" width="3.000000" height="3.000000" transform="rotate(90 9.000000 6.000000)" fill="#000000" fill-opacity="1.000000"/>
	<rect id="Rectangle 176" x="9.000000" y="3.000000" width="3.000000" height="3.000000" transform="rotate(90 9.000000 3.000000)" fill="#000000" fill-opacity="1.000000"/>
	<rect id="Rectangle 96" x="9.000000" y="9.000000" width="3.000000" height="3.000000" transform="rotate(90 9.000000 9.000000)" fill="#000000" fill-opacity="1.000000"/>
	<rect id="Rectangle 177" x="30.000000" y="6.000000" width="3.000000" height="3.000000" transform="rotate(90 30.000000 6.000000)" fill="#000000" fill-opacity="1.000000"/>
	<rect id="Rectangle 178" x="30.000000" y="3.000000" width="3.000000" height="3.000000" transform="rotate(90 30.000000 3.000000)" fill="#000000" fill-opacity="1.000000"/>
	<rect id="Rectangle 179" x="30.000000" y="9.000000" width="3.000000" height="3.000000" transform="rotate(90 30.000000 9.000000)" fill="#000000" fill-opacity="1.000000"/>
	<rect id="Rectangle 180" x="24.000000" y="6.000000" width="3.000000" height="3.000000" transform="rotate(90 24.000000 6.000000)" fill="#000000" fill-opacity="1.000000"/>
	<rect id="Rectangle 181" x="24.000000" y="3.000000" width="3.000000" height="3.000000" transform="rotate(90 24.000000 3.000000)" fill="#000000" fill-opacity="1.000000"/>
	<rect id="Rectangle 182" x="24.000000" y="9.000000" width="3.000000" height="3.000000" transform="rotate(90 24.000000 9.000000)" fill="#000000" fill-opacity="1.000000"/>
	<rect id="Rectangle 100" x="30.000000" y="12.000000" width="3.000000" height="3.000000" transform="rotate(90 30.000000 12.000000)" fill="#000000" fill-opacity="1.000000"/>
	<rect id="Rectangle 101" x="27.000000" y="12.000000" width="3.000000" height="3.000000" transform="rotate(90 27.000000 12.000000)" fill="#000000" fill-opacity="1.000000"/>
	<rect id="Rectangle 102" x="24.000000" y="12.000000" width="3.000000" height="3.000000" transform="rotate(90 24.000000 12.000000)" fill="#000000" fill-opacity="1.000000"/>
	<rect id="Rectangle 103" x="21.000000" y="12.000000" width="3.000000" height="3.000000" transform="rotate(90 21.000000 12.000000)" fill="#000000" fill-opacity="1.000000"/>
	<rect id="Rectangle 104" x="18.000000" y="12.000000" width="3.000000" height="3.000000" transform="rotate(90 18.000000 12.000000)" fill="#000000" fill-opacity="1.000000"/>
	<rect id="Rectangle 105" x="15.000000" y="12.000000" width="3.000000" height="3.000000" transform="rotate(90 15.000000 12.000000)" fill="#000000" fill-opacity="1.000000"/>
	<rect id="Rectangle 106" x="12.000000" y="12.000000" width="3.000000" height="3.000000" transform="rotate(90 12.000000 12.000000)" fill="#000000" fill-opacity="1.000000"/>
	<rect id="Rectangle 107" x="9.000000" y="12.000000" width="3.000000" height="3.000000" transform="rotate(90 9.000000 12.000000)" fill="#000000" fill-opacity="1.000000"/>
	<rect id="Rectangle 132" x="33.000000" y="21.000000" width="3.000000" height="3.000000" transform="rotate(90 33.000000 21.000000)" fill="#000000" fill-opacity="1.000000"/>
	<rect id="Rectangle 133" x="30.000000" y="21.000000" width="3.000000" height="3.000000" transform="rotate(90 30.000000 21.000000)" fill="#000000" fill-opacity="1.000000"/>
	<rect id="Rectangle 134" x="27.000000" y="21.000000" width="3.000000" height="3.000000" transform="rotate(90 27.000000 21.000000)" fill="#000000" fill-opacity="1.000000"/>
	<rect id="Rectangle 135" x="24.000000" y="21.000000" width="3.000000" height="3.000000" transform="rotate(90 24.000000 21.000000)" fill="#000000" fill-opacity="1.000000"/>
	<rect id="Rectangle 136" x="21.000000" y="21.000000" width="3.000000" height="3.000000" transform="rotate(90 21.000000 21.000000)" fill="#000000" fill-opacity="1.000000"/>
	<rect id="Rectangle 137" x="18.000000" y="21.000000" width="3.000000" height="3.000000" transform="rotate(90 18.000000 21.000000)" fill="#000000" fill-opacity="1.000000"/>
	<rect id="Rectangle 138" x="15.000000" y="21.000000" width="3.000000" height="3.000000" transform="rotate(90 15.000000 21.000000)" fill="#000000" fill-opacity="1.000000"/>
	<rect id="Rectangle 139" x="12.000000" y="21.000000" width="3.000000" height="3.000000" transform="rotate(90 12.000000 21.000000)" fill="#000000" fill-opacity="1.000000"/>
	<rect id="Rectangle 140" x="9.000000" y="21.000000" width="3.000000" height="3.000000" transform="rotate(90 9.000000 21.000000)" fill="#000000" fill-opacity="1.000000"/>
	<rect id="Rectangle 143" x="33.000000" y="24.000000" width="3.000000" height="3.000000" transform="rotate(90 33.000000 24.000000)" fill="#000000" fill-opacity="1.000000"/>
	<rect id="Rectangle 151" x="9.000000" y="24.000000" width="3.000000" height="3.000000" transform="rotate(90 9.000000 24.000000)" fill="#000000" fill-opacity="1.000000"/>
	<rect id="Rectangle 154" x="33.000000" y="27.000000" width="3.000000" height="3.000000" transform="rotate(90 33.000000 27.000000)" fill="#000000" fill-opacity="1.000000"/>
	<rect id="Rectangle 162" x="9.000000" y="27.000000" width="3.000000" height="3.000000" transform="rotate(90 9.000000 27.000000)" fill="#000000" fill-opacity="1.000000"/>
	<rect id="Rectangle 165" x="33.000000" y="30.000000" width="3.000000" height="3.000000" transform="rotate(90 33.000000 30.000000)" fill="#000000" fill-opacity="1.000000"/>
	<rect id="Rectangle 173" x="9.000000" y="30.000000" width="3.000000" height="3.000000" transform="rotate(90 9.000000 30.000000)" fill="#000000" fill-opacity="1.000000"/>
	<rect id="Rectangle 174" x="9.000000" y="33.000000" width="3.000000" height="3.000000" transform="rotate(90 9.000000 33.000000)" fill="#000000" fill-opacity="1.000000"/>
	<rect id="Rectangle 175" x="33.000000" y="33.000000" width="3.000000" height="3.000000" transform="rotate(90 33.000000 33.000000)" fill="#000000" fill-opacity="1.000000"/>
	<rect id="Rectangle 54" x="36.000000" y="36.000000" width="3.000000" height="3.000000" transform="rotate(90 36.000000 36.000000)" fill="#000000" fill-opacity="1.000000"/>
	<rect id="Rectangle 55" x="33.000000" y="36.000000" width="3.000000" height="3.000000" transform="rotate(90 33.000000 36.000000)" fill="#000000" fill-opacity="1.000000"/>
	<rect id="Rectangle 56" x="30.000000" y="36.000000" width="3.000000" height="3.000000" transform="rotate(90 30.000000 36.000000)" fill="#000000" fill-opacity="1.000000"/>
	<rect id="Rectangle 57" x="27.000000" y="36.000000" width="3.000000" height="3.000000" transform="rotate(90 27.000000 36.000000)" fill="#000000" fill-opacity="1.000000"/>
	<rect id="Rectangle 58" x="24.000000" y="36.000000" width="3.000000" height="3.000000" transform="rotate(90 24.000000 36.000000)" fill="#000000" fill-opacity="1.000000"/>
	<rect id="Rectangle 59" x="21.000000" y="36.000000" width="3.000000" height="3.000000" transform="rotate(90 21.000000 36.000000)" fill="#000000" fill-opacity="1.000000"/>
	<rect id="Rectangle 60" x="18.000000" y="36.000000" width="3.000000" height="3.000000" transform="rotate(90 18.000000 36.000000)" fill="#000000" fill-opacity="1.000000"/>
	<rect id="Rectangle 61" x="15.000000" y="36.000000" width="3.000000" height="3.000000" transform="rotate(90 15.000000 36.000000)" fill="#000000" fill-opacity="1.000000"/>
	<rect id="Rectangle 62" x="12.000000" y="36.000000" width="3.000000" height="3.000000" transform="rotate(90 12.000000 36.000000)" fill="#000000" fill-opacity="1.000000"/>
	<rect id="Rectangle 63" x="9.000000" y="36.000000" width="3.000000" height="3.000000" transform="rotate(90 9.000000 36.000000)" fill="#000000" fill-opacity="1.000000"/>
	<rect id="Rectangle 64" x="6.000000" y="36.000000" width="3.000000" height="3.000000" transform="rotate(90 6.000000 36.000000)" fill="#000000" fill-opacity="1.000000"/>
	<rect id="Rectangle 42" x="39.000000" y="39.000000" width="3.000000" height="3.000000" transform="rotate(-180 39.000000 39.000000)" fill="#000000" fill-opacity="1.000000"/>
	<rect id="Rectangle 43" x="39.000000" y="36.000000" width="3.000000" height="3.000000" transform="rotate(-180 39.000000 36.000000)" fill="#000000" fill-opacity="1.000000"/>
	<rect id="Rectangle 44" x="39.000000" y="33.000000" width="3.000000" height="3.000000" transform="rotate(-180 39.000000 33.000000)" fill="#000000" fill-opacity="1.000000"/>
	<rect id="Rectangle 45" x="39.000000" y="30.000000" width="3.000000" height="3.000000" transform="rotate(-180 39.000000 30.000000)" fill="#000000" fill-opacity="1.000000"/>
	<rect id="Rectangle 46" x="39.000000" y="27.000000" width="3.000000" height="3.000000" transform="rotate(-180 39.000000 27.000000)" fill="#000000" fill-opacity="1.000000"/>
	<rect id="Rectangle 47" x="39.000000" y="24.000000" width="3.000000" height="3.000000" transform="rotate(-180 39.000000 24.000000)" fill="#000000" fill-opacity="1.000000"/>
	<rect id="Rectangle 48" x="39.000000" y="21.000000" width="3.000000" height="3.000000" transform="rotate(-180 39.000000 21.000000)" fill="#000000" fill-opacity="1.000000"/>
	<rect id="Rectangle 49" x="39.000000" y="18.000000" width="3.000000" height="3.000000" transform="rotate(-180 39.000000 18.000000)" fill="#000000" fill-opacity="1.000000"/>
	<rect id="Rectangle 50" x="39.000000" y="15.000000" width="3.000000" height="3.000000" transform="rotate(-180 39.000000 15.000000)" fill="#000000" fill-opacity="1.000000"/>
	<rect id="Rectangle 51" x="39.000000" y="12.000000" width="3.000000" height="3.000000" transform="rotate(-180 39.000000 12.000000)" fill="#000000" fill-opacity="1.000000"/>
	<rect id="Rectangle 52" x="39.000000" y="9.000000" width="3.000000" height="3.000000" transform="rotate(-180 39.000000 9.000000)" fill="#000000" fill-opacity="1.000000"/>
</svg>
