<svg width="256.000000" height="256.000000" viewBox="0 0 256 256" fill="none" xmlns="http://www.w3.org/2000/svg" xmlns:xlink="http://www.w3.org/1999/xlink">
	<desc>
			Created with Pixso.
	</desc>
	<defs/>
	<path d="M0 256L0 0L256 0L256 256L0 256ZM192 160L160 160L160 128L128 128L128 96L96 96L96 128L64 128L64 160L32 160L32 32L224 32L224 128L192 128L192 160ZM160 192L192 192L192 160L224 160L224 224L160 224L160 192ZM160 192L128 192L128 224L32 224L32 192L64 192L64 160L96 160L96 128L128 128L128 160L160 160L160 192ZM192 64L160 64L160 96L192 96L192 64Z" fill="#000000" fill-opacity="1.000000" fill-rule="evenodd"/>
</svg>
